<?xml version="1.0" encoding="utf-8"?>
<!-- Generator: Adobe Illustrator 26.0.1, SVG Export Plug-In . SVG Version: 6.00 Build 0)  -->
<svg version="1.1" id="Layer_1" xmlns="http://www.w3.org/2000/svg" xmlns:xlink="http://www.w3.org/1999/xlink" x="0px" y="0px"
	 viewBox="0 0 595.3 841.9" style="enable-background:new 0 0 595.3 841.9;" xml:space="preserve">
<style type="text/css">
	.st0{fill:#059245;}
	.st1{fill:#0A0A0A;}
	.st2{fill:#F5F6F6;}
</style>
<g>
	<path class="st0" d="M324.2,502.8c-3.8-1.8-6.5-4.1-7.9-7.5c-0.5-1.7,0-3.6-1.1-5.5c-0.9-1.6,0.8-3.9-1.1-5.5c-0.2-0.1-0.1-0.6,0-1
		c0.6-4.3-0.7-8.4-1.2-12.6c-0.6-4.6,0-9.2-0.9-13.6c-1.2-5.9-0.7-11.7-0.8-17.6c-0.1-5.8,0.2-11.7-0.1-17.5
		c-0.1-2.7,1.4-4.9,1.1-7.6c-0.2-2.5-0.6-5.2,0.1-7.4c0.8-2.4,0.2-5,1-7.1c0.9-2.3,0.7-4.4,0.9-6.6c0.1-1.6,0.7-3.1,1.1-4.5
		c0.8-2.9,1.2-5.8,1.9-8.7c0.7-2.7,1.4-5.4,2.1-8.1c1.5-5.5,3.7-10.8,5.5-16.2c1.6-4.7,4.1-9,5.8-13.6c1.4-3.9,3.9-7.4,6.1-11
		c2.6-4.3,4.9-8.8,8.3-12.6c0.2-2.4,2.6-3.5,3.7-5.4c1.9-3.2,4.8-5.7,7.3-8.5c2.6-2.9,5-6.1,8.2-8.3c0.1-2,2.4-1.7,3.3-3
		c1-1.5,2.5-2.7,3.8-3.9c1.1-1.1,2.7-1.9,3.7-2.9c4.3-4.2,9.6-6.9,14.1-10.8c1.5-1.3,3.5-2.1,5.2-3.1c6.6-3.7,12.9-8,19.9-11.1
		c5.6-2.5,11.4-4.7,17.1-7.1c5.4-2.3,11-4,16.7-5.6c2.9-0.8,5.9-1.6,8.8-2.8c2.9-1.2,6.1-1.3,9.1-2.1c3.9-1,8.1-1,11.8-2.9
		c0.7-0.3,1.6-0.1,2.5,0c3.2,0.1,6.2-0.9,9.3-1.8c0.3-0.1,0.6-0.3,0.9-0.2c4.3,0.7,8.4-0.6,12.6-1.2c6.2-0.9,12.5,0,18.6-1.1
		c6.6-1.1,13.1-0.3,19.6-0.8c2.6-0.2,4.9,1.8,7,1.1c4,1.9,6.7,4.5,8.1,8.3c0,2.3,0.2,4.7,0,6.9c-0.6,5.8,1.7,11.4,0.9,17.1
		c-1.3,9.2-0.6,18.4-0.9,27.6c-0.1,2.1-1.5,3.8-1.1,6.1c0.3,2,0.2,4.1-0.8,6.1c-0.5,0.9-0.1,2.3-0.1,3.5c0,1.9,0.1,3.8-0.9,5.6
		c-0.8,1.5,0.7,3.6-0.9,5.1c-0.3,0.3-0.1,1.3-0.2,1.9c-0.2,1.7,0.5,3.4-0.8,5.2c-0.9,1.3,0.7,3.6-1.2,5c0.6,4.3-1.8,8-2.1,12.2
		c-0.3,3.3-1.9,6.5-2.8,9.8c-1.5,5.2-3.1,10.4-4.9,15.5c-1.5,4.1-3.2,8-4.7,12.1c-1.5,4-3.3,8-5.5,11.7c-2.1,3.8-3.9,7.8-6.1,11.5
		c-3.2,5.5-7,10.8-10.7,16.1c-2.8,4-6,7.6-9.1,11.3c-3.8,4.6-7.9,8.8-12.1,12.9c-8.6,8.4-18.2,15.7-28.3,22.2
		c-6.5,4.2-13.3,8-20.3,11.2c-9.2,4.3-18.6,8.2-28.4,11.1c-6.6,2-13.2,3.6-19.9,5.1c-3.4,0.8-6.8,1.1-10.2,1.9
		c-4.8,1.1-9.7,2.1-14.7,2c-3.2,1.9-6.7,1.1-10.1,0.9c-4.1-0.2-8,1.5-12.1,1.2c-4-0.3-8-0.3-12,0
		C331.7,504.2,327.7,502.2,324.2,502.8z M336,451.3c1.3-1,1.2-1.9,1.6-2.6c2.3-4.3,5.6-8,8.2-12.1c1.3-2.1,2.8-4.2,4.2-6.2
		c3.3-4.6,6.6-9.3,10-13.8c3.8-5,7.5-10,11.6-14.7c2.6-2.9,5.1-6,7.5-9c2.4-2.9,5.3-5.4,7.5-8.3c2.4-3.2,5-6,7.8-8.7
		c6.8-6.5,13.1-13.4,20.3-19.6c5-4.3,10.2-8.6,15.3-12.8c6.3-5.2,13.3-9.6,20.1-14.2c4.5-3.1,9.1-3.8,13.7-2.3
		c4.5,1.5,7.1,5.1,7.9,9.3c0.9,5-1.2,9.5-5.4,12.6c-0.8,0.6-2.3,0.9-3.3,1.6c-6.8,4.6-13.6,9.1-20.1,14.2
		c-5.8,4.5-11.2,9.4-16.5,14.5c-6.8,6.4-13.2,13.2-19.8,19.8c-0.7,0.7-1.6,1.3-2.1,2.1c-2.3,4.3-6.4,7.2-9.4,11.1
		c-2.1,2.8-4.6,5.5-6.8,8.3c-3.9,5-7.7,10.1-11.5,15.1c-4.2,5.4-7.8,11.1-11.9,16.6c-3.8,5.2-7.3,10.6-10.6,16.1
		c-2.1,3.5-4.9,6.6-6.3,10.9c4.9-0.5,9.6,0.7,14.2-1c1.8-0.6,4.3,0.5,5.9-0.3c2-1,3.8-0.9,5.7-0.8c2,0.2,3.6-1.1,5.6-1.2
		c2.7-0.1,5.6-0.4,8-1.2c7-2.1,14.2-3.3,21.1-5.7c8.4-3,16.8-6,24.9-9.9c3.9-1.9,7.7-4,11.5-6.1c9.3-5.2,17.9-11.4,25.8-18.5
		c7.3-6.6,14.2-13.5,20-21.6c3.1-4.2,6.2-8.5,9.2-12.8c3-4.3,4.6-9.6,8-13.7c-0.8-2.6,2.2-3.6,2.3-6.1c0.1-2.1,2-4.1,3-6.2
		c1-2.2,2-4.5,2.7-6.9c2.6-7.9,5.4-15.8,7.3-24c1.3-5.5,2.7-10.9,3.5-16.5c0.3-1.9,1.6-3.5,1.2-5.6c-0.6-3.3,1.7-6.3,1-9.6
		c1.8-2,1.1-4.4,0.9-6.6c-0.3-2.6,1.1-4.6,1.2-7.1c0-3.9-0.8-7.8,0.9-11.6c0-8.5,0-16.9,0-25.5c-1.3,0-2.3,0-3.3,0
		c-3.2,0-6.3,0.2-9.5-0.1c-3.1-0.2-5.9,1.5-9.1,1.1c-4.4-0.5-8.6,1.7-13.1,0.9c-0.2,0-0.4-0.1-0.5,0c-1.6,1.9-3.9,0.2-5.5,1.1
		c-1.9,1-3.7,0.8-5.6,0.9c-0.7,0-1.4-0.2-2,0.1c-2.6,1.3-5.5,1.2-8.2,1.9c-2.7,0.7-5.5,1.3-8.2,2c-3.4,1-7,1.6-10.4,2.7
		c-6,2-12,4.2-17.9,6.1c-7.5,2.5-14.5,6.2-21.5,9.7c-6.2,3.1-12.1,7.2-17.9,11.2c-7,4.8-12.8,10.6-19.4,15.8
		c-3.6,2.8-5.6,7.3-9.2,10.2c-0.7,2.8-3.4,4.1-4.9,6.5c-3.5,5.5-7.2,11-10.5,16.7c-2.9,5-4.9,10.3-7.3,15.5c-1.7,3.4-3,7.2-3.9,10.8
		c-1.5,6.1-4.2,11.9-4.2,18.3c-2.1,1.4-0.2,3.8-1.4,5.4c-1.3,1.8-0.3,3.8-0.6,5.7c-0.1,0.6,0.2,1.6-0.2,1.9
		c-1.5,1.4-0.9,3.2-0.8,4.7c0.2,1.9-1.2,3.3-1.1,5.1C336,427,336,438.8,336,451.3z"/>
	<path class="st0" d="M46.4,292.9c3.7,0,7.3,0,11,0c6.4,0,12.7,1.7,19.1,1c3.6,1.7,7.4,1.1,11.1,0.9c1.8-0.1,2.9,1.3,4.6,1.2
		c1.4-0.1,2.9-0.7,4.2,0.7c0.4,0.4,1.6,0.3,2.4,0.2c3.7,0,7.2,0.7,10.7,1.8c2.2,0.7,4.7,0.3,7.1,1c6.3,1.8,12.9,2.3,18.9,5
		c3.5-0.4,6.5,1.4,9.6,2.3c3.9,1.1,8,2.5,11.7,4.1c6.3,2.8,12.8,5.4,18.9,8.6c9.9,5.1,19.3,10.9,28.3,17.4
		c10.2,7.3,19.2,15.8,27.6,24.9c7,7.6,12.9,16.1,18.5,24.8c5,7.9,9.2,16.1,13.1,24.6c3.3,7,6.2,14.1,8.3,21.5c0.8,3,2.6,5.7,2.6,9
		c0,3,2.4,5.5,1.9,8.7c2.7,4.9,1.8,10.7,3.9,15.9c0.9,2.3-0.3,5.2,1.1,7.5c-0.3,4.7,1.2,9.3,1.1,14.1c-0.1,5,1.1,10,0.9,15.1
		c-0.2,5.2-0.2,10.3,0,15.5c0.1,3-1,5.7-1.3,8.6c-0.3,2.8-3.3,4.7-5.4,6.7c-1.4,1.3-3.4,1.5-5.2,1.9c-3.5,0.8-7.2,0.5-10.5,1.2
		c-3.4,0.7-6.9,0.7-10.3,1.6c-3.3,0.9-7.1-0.5-10.4,0.3c-6.7,1.6-13.4,0.6-20.1,0.8c-6.7,0.2-13.3,0-20,0.1c-2.6,0-4.9-1.4-7.6-1.1
		c-2.3,0.2-4.8,0.5-7.1-0.8c-1.1-0.6-2.9-0.2-4.4-0.1c-1.5,0.1-2.4-1.4-4.1-1.1c-3,0.5-5.9-0.7-8.8-1.6c-0.1,0-0.3-0.3-0.4-0.3
		c-5.5,0.3-10.4-2.3-15.5-3.6c-5-1.2-9.8-3-14.6-4.5c-2.8-0.9-5.5-2.1-8.1-3.3c-4.6-2.2-9.2-4.3-13.7-6.7c-3.3-1.8-6.4-3.9-9.6-5.9
		c-4.9-2.9-9.6-6.1-13.9-9.7c-4.5-3.8-9-7.6-13.2-11.9c-7.4-7.5-14.1-15.5-20.2-24.2c-3.6-5.1-6.9-10.4-9.9-15.9
		c-2.4-4.3-4.9-8.6-7-13.1c-2.1-4.6-4-9.3-5.9-14.1c-2.7-6.9-5-13.9-7.1-21c-1-3.4-2.8-6.7-2.7-10.4c0-0.6-0.1-1.2-0.5-1.8
		c-1.7-2.9-1.6-6.3-2.4-9.5c-1.4-5-1.1-10.3-3.1-15.2c-0.1-0.3-0.1-0.7,0-1c0.7-4.1-0.7-8.1-1.2-12.1c-0.6-4.7,0-9.5-0.9-14.1
		c-1-5.1-0.7-10.1-0.8-15.1c-0.1-5.2,0-10.3,0-15.5c0-6,3.4-10.4,9.3-12.5c2-0.7,3.9-1.1,6.1-1.1C37,293,41.7,292.9,46.4,292.9z
		 M257.5,503.9c0.9-0.9,0.5-1.8,0.5-2.5c0.1-3-0.2-6,0.1-9c0.4-3.2-1.6-5.9-1.1-9.1c0.5-3.6-1-7-1.2-10.6c-0.2-3-1.5-6.1-1.7-9.2
		c-0.2-3.2-1.5-6.1-2.2-9.1c-0.7-3.3-1.5-6.6-2.6-9.9c-1.7-4.8-3.2-9.6-5.1-14.4c-4.2-10.3-7.9-17.5-12.8-26.7
		c-4.5-8.3-10.1-15.8-16.2-22.7c-7.3-8.2-15.1-15.9-24-22.5c-8.1-6-16.7-11.1-25.4-16c-6.4-3.6-13.5-6.1-20.4-8.7
		c-5.3-2-10.7-4.1-16.2-5.4c-6.4-1.5-12.6-4.1-19.3-4.2c-4.2-1.9-8.9-1.6-13.3-2.9c-2.5-0.7-5.4-0.3-8.1-1c-2.6-0.7-5.4-0.6-8.1-1
		c-4.8-0.7-9.7-0.5-14.6-1c-7.7-0.8-15.6-0.2-23.2-0.2c-0.3,0.3-0.5,0.4-0.5,0.6c0,3.7-0.1,7.3,0,11c0.1,3.8-0.8,7.7,0.5,11.3
		c1.2,3.4-0.4,7,1.4,10.4c0.8,1.4,0.3,3.6,0.1,5.4c-0.2,1.9,1.1,3.2,1.2,5.1c0.1,2.5,1.2,5,0.9,7.6c2,1.4,0.1,3.9,1.4,5.4
		c1.5,1.8-0.5,4.4,1.6,5.8c-0.7,2,0.7,3.7,1.1,5.6c0.9,4.4,2.5,8.6,3.6,13c1.1,4.4,2.9,8.5,4.4,12.7c1.6,4.3,3.1,8.7,5.3,12.8
		c4.5,8.5,8.8,17.2,14.6,25c4.8,6.5,9.3,13,15,18.8c7.1,7.2,14.5,14,22.8,19.8c9.3,6.5,19.6,11.3,30.1,15.6
		c5.2,2.1,10.8,3.8,16.3,5.3c5.6,1.5,11.3,2.3,16.9,3.8c2.4,0.7,5,0.3,7.6,1c2.6,0.7,5.4,0.9,8.1,1c6.9,0.3,13.7,0.3,20.6,1.2
		c4.9,0.6,9.7-1.2,14.6-1.1c1,0,2.2,0.6,3.1-0.5c-1.8-1.7-3.8-3.1-5.5-4.7c-5.5-4.9-10.7-10.2-16.2-15.2
		c-5.6-5.1-11.7-9.7-16.7-15.4c-0.2-0.3-0.4-0.6-0.7-0.7c-2.5-0.8-4-2.9-5.5-4.7c-1.7-2-4.4-2.8-6-4.9c-3.4-4.2-8.1-7.2-12.1-10.8
		c-2.4-2.2-4.7-4.5-7.3-6.4c-5.6-4.1-10.5-9-16-13.2c-4.5-3.4-8.6-7.3-13-10.9c-4.5-3.6-9.3-6.9-13.5-10.7
		c-3.7-3.3-8.1-5.9-11.7-9.4c-3.1-3-4.7-5.2-4.7-9c0-1.7,0-3.3,0-5c0.8-2.1,2.5-3.4,4-4.9c3.9-3.8,10.4-4.5,14.6-1.4
		c4.9,3.6,9.7,7.3,14.3,11.3c4,3.5,8.2,6.9,12.4,10.1c6.7,5,12.8,10.7,19.4,15.8c4.7,3.6,9.2,7.6,13.7,11.6c4.6,4.1,9.4,7.9,14,12
		c6.2,5.5,12.3,11.2,18.7,16.6c3.2,2.7,6.3,5.7,9.4,8.6c5.4,5.1,11.3,9.7,16.3,15.1C245.9,493.8,252.3,498.2,257.5,503.9z"/>
	<path class="st0" d="M303.2,338.9c-1.9,0-4,0-6.2,0c-2.2,0-4.4,0-6.6-0.9c-1.8-0.8-4.3,0.8-6-1.1c-4.2,0.4-8.1-1.5-12.2-1.9
		c-5.1-0.5-9.8-2.4-14.7-3.3c-0.8-0.1-1.6-0.9-2.6-0.9c-0.8,0-1.6,0-2.3,0c-1.5-1.3-3.1-1.7-4.8-2.1c-2.8-0.8-5.5-2-8.3-2.8
		c-6.2-1.9-11.9-5.1-18-7.3c-4-1.4-7.6-4.2-11.4-6.3c-4.6-2.6-9-5.9-13.3-9c-2.7-2-5.3-4.1-7.8-6.2c-4.8-4.1-9.3-8.6-13.4-13.4
		c-4.2-4.9-8.1-10.2-11.4-15.7c-6-9.8-10.9-20-14.2-31.1c-1.5-5.2-3.4-10.4-3.9-15.9c-1.7-1.7-0.3-4.2-1.3-5.9
		c-1.1-1.9,0.1-4.1-0.7-5.7c-1.9-3.8,0.3-8.1-1.9-11.7c-0.4-0.6-0.1-1.6-0.1-2.5c0-5,0.3-10-0.1-15c-0.5-7.3,0.7-14.4,1.2-21.6
		c0.3-4.9,1.4-9.8,1.8-14.7c2.2-2.2-0.3-5.5,2-7.7c-0.5-2.6,1.7-4.9,1-7.6c2.4-5.4,2.9-11.4,5.1-16.9c1.1-2.8,3.2-5.2,6-6.3
		c2.6-1,5.4-3.2,8.4-0.7c3.4-0.1,6.4,1.3,9.7,2c5.3,1.2,10.5,2.8,15.7,4.4c4.4,1.4,8.6,3.6,13.1,4.5c3.2,0.7,5.6,2.6,8.6,3.4
		c4.8,1.4,9.4,3.9,14,6c3.9,1.8,7.6,4.2,11.5,6.2c5.4,2.8,10.4,6.3,15.5,9.6c5.8,3.7,11,8.2,16.3,12.4c2,1.6,4.1,3.3,5.7,5.4
		c1.1,1.4,2.6,2.6,3.8,3.9c1.1,1.2,2.7,2,2.8,3.8c2.1,0.2,2,2.5,3.4,3.5c1.3,0.9,1.9,2.6,3,3.7c4.4,4.5,7.5,9.9,10.7,15.1
		c3.5,5.6,6.5,11.6,8.7,17.9c0.7,1.9,2.4,3.4,2,5.7c2.6,2.4,1.4,6.5,3.9,8.9c0.1,3.2,1.7,6,2,9.1c0.3,2.7,0.9,5.2,1.8,7.8
		c0.1,0.3,0.3,0.6,0.2,0.9c-0.6,3.9,1.6,7.6,1,11.6c2.1,9.6,0.4,19.4,1.1,29.1c0.2,2.4-1,4.3-1.1,6.6c-0.1,2,1,4.3-0.9,6.1
		c-0.3,0.2,0,1-0.1,1.5c-0.3,2.1,0.6,4.2-0.7,6.2c-1,1.6,0.6,4-1.3,5.4c1,4.3-2.4,7.9-2,12.2c-2.2,5.4-3.3,11.3-6.1,16.5
		c-0.6,1.2-1.6,2.3-3.2,2.8C305.6,337.3,304.6,338.1,303.2,338.9z M294.9,299.9c0.2-2.6,0-4.9,0.9-7.3c0.9-2.3-0.6-5.2,1.1-7.5
		c0.3-5.7-0.8-11.5,0.9-17.1c0.3-1-1.1-1.7-1-3.1c0.2-2.6-0.2-5.4,0.1-8c0.3-2.7-1.1-5-1-7.6c0.1-2.6-0.5-5.1-1-7.6
		c-0.7-3.1-1.2-6.1-2-9.2c-1.3-5.6-3.1-11.1-5.3-16.3c-5.1-11.7-11.8-22.5-20.1-32.1c-5.2-5.9-10.8-11.6-17.2-16.2
		c-2.1-1.5-3.8-3.6-5.9-4.9c-9.9-6-19.5-12.7-30.4-17.2c-6-2.4-11.9-5.1-18-7.3c-2.5-0.9-5.1-1.4-7.4-2.7c-2.5-1.3-5.4-1.4-8-2.5
		c-2.2-0.9-4.7-2-7.3-1.4c-0.5,1-1.1,2-1.3,3c-0.2,1.1,0.3,2.5-0.2,3.4c-2.1,3.7-1.7,7.9-2.8,11.8c-1.3,4.9-0.9,10.1-2,15.2
		c-0.6,2.7-0.4,5.7,0,8.5c0.4,3-1.2,5.6-1.2,8.6c0,2.1,0.8,4.1,1,6.1c0.4,5.4,0.2,10.7,0.9,16.1c0.4,3.2,1.7,6.3,1.2,9.6
		c1.8,1.5,0.6,3.7,1.3,5.5c2.2,5.6,3.1,11.6,5.6,17.2c1.4,3.2,2.8,6.5,4.5,9.6c1.6,3.2,2.9,6.5,5.1,9.4c2.1,2.6,4.1,5.3,6,8
		c4.3,6.1,10.4,10.6,15.3,16.1c2.8,0.7,4.1,3.4,6.5,4.9c4.5,2.8,8.6,6.2,13.6,8.2c2.7,3.1,6.8,3.8,10.2,5.5c3.8,1.9,7.9,3.4,12,4.8
		c7.2,2.4,14.5,4.5,22.2,6.1c-2.5-4.5-4.8-8.7-7.2-12.8c-2.2-3.8-4.4-7.5-6.9-11.1c-5.9-8.6-11.3-17.5-17.6-25.7
		c-1.5-2-2.6-4.3-4.2-6.2c-3.5-4.3-6.9-8.8-10.1-13.3c-3.7-5.1-7.5-10.2-11.5-15.1c-3.3-4.1-6.4-8.5-10.1-12.4
		c-1.9-2-1.2-5.1-2.5-7.5c1-4.5,2.7-8.4,7.3-10.5c1.7-0.8,3.7-1.9,5.2-1.7c3.2,0.4,6.7,1.4,8.8,3.8c1.8,2.1,3.9,4,5.4,6.2
		c3,4.5,6.8,8.4,10,12.8c3.2,4.4,6.6,8.6,9.9,12.9c1.8,2.4,3.6,4.9,5.3,7.3c3.1,4.4,6.3,8.6,9.3,13.1c3.6,5.5,7.6,10.9,11.2,16.4
		c7.1,10.8,14,21.7,19.7,33.3C293.3,299.8,293.7,299.9,294.9,299.9z"/>
	<path class="st1" d="M467.7,637.1c-0.9-0.9-1.5-1.2-1.5-1.6c-3.5-18.9-8.8-37.4-12.3-56c2.3-2.6,5.4-2.6,8-3.5
		c7.3-2.7,18.4-3.9,25.7-3.1c1.5,0.2,3,0.8,4.4,1.4c7.9,3.1,12.3,9.3,15.1,16.9c2.2,5.9,2.5,12.1,1.8,18.1
		c-0.6,5.1-2.5,10.1-6.6,13.7c-1.9,1.7-3.7,3.5-5.8,5.1c-2.2,1.7-4.8,2.4-7.1,3.5c-2.2,1.1-4.6,1.7-7.1,2.2
		C477.4,635.2,472.5,635.9,467.7,637.1z M473.2,628.6c2.4,1.1,4.2-0.6,6.3-0.8c5.3-0.6,10.3-2.6,14.3-6.3c4.8-4.4,7.2-9.9,7.2-16.5
		c0-2.2-0.3-4.4-0.9-6.6c-1-3.8-1.9-7.5-4.2-10.8c-1.9-2.8-4.4-5.3-7.5-6.7c-2.7-1.3-5.9-0.7-8.6-2c-0.4-0.2-1.2-0.1-1.4,0.1
		c-0.9,1.2-2.1,0.8-3.2,0.8c-3.1,0-5.9,0.7-8.7,1.9c-1.3,0.5-2.9,0.2-3.6,2.1C466.3,598.6,469.7,613.5,473.2,628.6z"/>
	<path class="st1" d="M75.1,594.6c-0.7-9,2.3-16.7,7.3-23.3c4-5.3,9.2-10,16.6-10.4c8.1-3.5,22.8,2.9,27.4,10c2.6,4,5,8.3,4.7,13.5
		c-0.1,2,0,4,0,6c0.1,6.5-2.5,12.2-5.7,17.6c-2.6,4.3-6.2,7.7-10.4,10.7c-2.6,1.8-5.7,1.7-8.2,3.2c-6.8,0.2-13.3-0.1-19.4-3.9
		c-5-3.1-8.9-7.1-10.9-12.4C75,602.1,74.4,598.1,75.1,594.6z M96.2,614.9c1.2,0,2.9-0.1,4.6,0c5.4,0.5,9.7-1.8,13.2-5.5
		c6.2-6.7,8.2-14.9,9.1-23.7c0.1-1.5-1.1-2.2-1.2-3.6c-0.5-6.5-3.9-11.1-9.9-13.7c-3.9-1.7-7.7-2.1-12-0.7c-3.7,1.2-6.5,3.5-9.8,7.4
		c-3.9,4.7-7.1,13.7-7.3,19.4c-0.1,2.2,0.9,4.1,1,6.1c0.1,3.6,1.9,6.3,4.1,8.8C90.1,611.8,92.6,613.5,96.2,614.9z"/>
	<path class="st1" d="M396.4,621.7c-2.3,1-4.5-1.9-6.5-0.7c-2.2,1.3-4.4,0.4-7,1.1c0.6,1.6-0.8,3.4,0.8,5c0.2,0.2,0.3,0.6,0.3,0.9
		c-0.7,6.6,1.9,13,0.9,19.7c-1.9,0.6-4.2-0.6-6.2,1.9c-0.4-1.1-0.7-2-1-2.8c-0.3-4.4-2.4-9.3-1.7-14.4c-1.6-3.2-0.9-6.7-1-10.1
		c0-2.3-1.4-4.2-1.1-6.6c0.2-2.1,0.9-4.6-0.9-6.6c-0.1-0.1,0-0.3,0-0.5c0.6-6.5-2-12.9-0.8-19.5c4.6-1.1,9.2-2.6,14-2.2
		c1.4,0.1,2.1-1.4,3.6-1.1c1.2,0.2,10.7,1.8,12,2.5c2.6,1.3,4.8,3.2,6.1,5.9c0.6,1.1,1.2,2.2,1.9,3.5c0.2,10.3,1.1,12.3-8.9,19.9
		c5.1,1.8,7.4,5.7,9,10.6c1.9,5.5,3.5,11.1,6.5,16.8c-3,0.2-5.5-0.5-7,1.4c-1.7-0.8-2.2-1.5-2.6-2.7c-1.8-5.1-3.7-10.1-5.2-15.3
		C400.9,625.6,398.6,624.1,396.4,621.7z M394.5,592.9c-4.8,0.2-9.7-0.7-14.6,1.5c1.4,7,1.4,14.2,2.4,21.3c1.1,0.4,2.6,0.6,3.3,0
		c1.1-0.9,2.1-0.8,3.2-0.8c5.8,0,10.5-2,13.2-7.5C402.1,597.6,402.1,597.6,394.5,592.9z"/>
	<path class="st1" d="M319.9,591.5c0.6-0.6,1-1,1.4-1.4c10.5,0,21,0,31.5,0c0,2.3,0,4.4,0,6.7c-7.8,0-15.6,0-23.7,0
		c-0.4,6.4-0.1,12.6-0.2,18.9c4,1.3,7.4-1.1,11.2-0.8c3.8,0.4,7.6,0.1,11.7,0.1c0,2.3,0,4.5,0,6.7c-0.2,0.1-0.4,0.3-0.5,0.2
		c-7.4-0.5-14.7,0.6-22,1.2c-1.5,3.4,1,6.5,0.8,9.9c-0.3,3.5-0.1,7-0.1,10.5c2.9,1.4,5.2-1.2,8-0.8c2.9,0.5,6,0.1,9,0.1
		c2.8,0,5.7,0,8.7,0c0,2.2,0,4.5,0,7c-3.6,0-7.2,0.2-10.8-0.1c-3.6-0.3-6.9,1.4-10.6,1.1c-4-0.3-8-0.1-12.4-0.1
		c0-2.4,0.6-4.9-0.2-6.9c-0.9-2.4-0.8-4.7-0.8-7.1c-0.1-2.3,0-4.7,0-7c0-6.8,0.7-13.7-0.2-20.5C320,603.4,320.3,597.4,319.9,591.5z"
		/>
	<path class="st1" d="M541.1,610c8.7-2.9,16.5-5.5,24.5-8.2c0.4,2.3,2,4.2,1.2,6.9c-10.3,3.4-20.4,7.9-31.4,10.6
		c-6.6-19.2-13-38-19.5-56.8c10.1-3.5,20.2-7,30.5-10.6c2.1,1.6,2.3,4.1,2.7,6.8c-7.7,2.6-15.3,5.1-23.1,7.8
		c1.6,5.4,3.6,10.9,5.8,16.1c2.8,1.1,5-0.3,7-1.1c3.9-1.5,8.1-2,11.7-4.5c0.7-0.5,1.9-0.1,2.9-0.1c2,1,1.2,3.5,2.6,4.9
		c0,1-0.8,1.7-1.4,1.9c-6.7,2.2-13.5,4.3-20.4,6.5C536.7,596.7,538.4,603.5,541.1,610z"/>
	<path class="st1" d="M267.6,588.5c2.1,2.1,4.7,1.2,7.4,1.6c-0.1,1.9-1,3.5-1.8,5.1c-2.4,5.5-4.9,10.9-7.4,16.4
		c-2.6,5.7-5.3,11.5-7.9,17.2c-2.8,6.3-5.6,12.6-8.5,19c-3,0-6.1,0-9.2,0c-4.9-20.5-9.8-41-14.7-61.3c3.3-1.3,6.1-0.1,9,0.6
		c3.2,16.5,8.1,32.9,10.7,49.8c0.3,0,0.7,0.1,1.2,0.1c0.5-1.1,1.1-2.1,1.4-3.3c1-4.7,3.5-8.9,5.3-13.3c2.5-6.3,5.3-12.4,7.9-18.7
		c1.6-3.8,3.6-7.5,5.1-11.4C266.4,589.7,267,589.2,267.6,588.5z"/>
	<path class="st1" d="M364,739.4c-0.7,0.7-1,1-1.4,1.4c-1.5,0-2.9,0-4.5,0c0-13.6,0-27,0-40.7c1.7,0,3.5,0,5.8,0
		c6.3,8.8,11.9,18.6,18.7,29c0.6-5.5,0.3-9.9,0.3-14.3c0.1-4.5,0-9,0-13.4c0.5-0.5,1-1,1.5-1.5c1.3,0,2.7,0,4,0
		c0.2,0.2,0.5,0.5,0.5,0.8c0,13.3,0,26.6,0,40.1c-1.9,0-3.7,0-5.9,0c-6.6-10.3-13.5-20.8-19.7-31.7c-0.8,1.1-0.7,2.4-0.3,3.3
		c1.7,4.8,0.7,9.7,0.9,14.6C364.1,731,364,735.2,364,739.4z M383.5,731.9c0.7-0.7,0.7-1.3,0-2C382.8,730.6,382.8,731.2,383.5,731.9z
		"/>
	<path class="st1" d="M150.9,627.6c8.2,1.1,15.8,3.7,23.8,4.5c0.5,0.5,0.9,1,1.6,1.7c-1.5,1.3-1.4,3.1-1.3,4.7
		c-3.2,1.5-5.9-0.3-8.6-0.7c-2.6-0.4-5.2-1.1-7.8-1.6c-2.8-0.5-5.7-0.9-8.3-1.7c-2.6-0.8-5.5,0.2-8.5-3.3c-0.7-2,0.9-5.6,1.8-9
		c0.5-2.1-0.6-4.7,1.5-6.3c0.2-6,2.4-11.7,3.2-17.7c0.2-1.8,0.1-4.3,1-5.5c1.3-1.6,0.1-3.5,1.4-5c1.3-1.4-0.5-3.9,1.4-5.4
		c-0.7-2.8,1.4-5.2,1.1-8c2.7-1.5,5,0.8,7.6,0.7c1.4,3.2-1.4,6.2-0.6,9.4c-2.2,1.8,0.1,4.9-2,6.7c-0.3,6-2.7,11.7-3,17.7
		c-1.9,3.3-1.7,7.2-2.8,10.8C151.5,622,151.5,624.9,150.9,627.6z"/>
	<path class="st1" d="M241.9,740.9c-9.5-4.4-13.2-11.5-13-21.3c0.2-9.7,4.6-16.1,14.6-19.7c1.3,0,3.7,0,6,0
		c5.3,0.1,9.4,2.7,12.5,6.8c2.1,2.7,2.7,5.9,3.4,9.1c0.7,3.2,0.4,4.7-0.3,9.8c-0.4,3.1-2,5.5-3.2,8.2c-0.8,1.8-2.3,3.1-4,4.1
		c-3.5,2-7,3.7-11.2,3C245.2,740.7,243.5,740.9,241.9,740.9z M235,726.7c1.6,0.2,1.4,1.8,1.8,2.7c2.2,5,2.9,4.3,8.1,6.9
		c1.5,0.8,2.7,0.7,4.1,0.2c5.3-1.9,9.5-4.4,10.2-11c0.6-5.3,1.4-7.8-0.2-11.7c-1.5-3.6-3.2-7.3-8.2-8.9c-2.2,0-5.2,0-8.2,0
		c-1,0.6-1.5,1.9-3.1,2.1c-1.6,0.3-1.7,2.2-2.4,3.4c-1.6,2.8-2.6,5.8-2.1,9.1C235.2,721.7,235,723.9,235,726.7z"/>
	<path class="st1" d="M206.9,725.3c-3.2-2.2-6.3-1.2-9.7-1.5c0,5.6,0,11.2,0,16.9c-2.1,0-3.9,0-5.9,0c0-13.1,0-26.3,0-39.6
		c0.6-0.5,1.1-1.3,2.3-1.3c4.2,0.1,8.3,0,12.5,0.1c2.9,0.1,6.4,2.2,8.4,4.9c0.4,0.5,0.9,0.9,1.5,1.5c0,2.9,0,5.8,0,9.1
		c-0.5,0.9-1.8,1.7-2.2,3.2c-0.4,1.4-2.7,1.1-3.4,3c3.8,3,4.7,7.7,5.8,12.4c0.5,2.2,1.3,4.4,2,6.8c-1.9,0-3.7,0-5.8,0
		c-1.7-0.9-1.7-3.2-2-4.8c-0.4-1.8-1.2-3.6-1.3-5.5C208.7,728.7,207.6,727,206.9,725.3z M198.3,704c-1.6,2.6-1.9,8.4-0.9,14.9
		c2.1,0,4.3,0,6.4,0c2.7,0.1,4.7-1.5,5.9-3.5c1-1.7,2.4-3.9,0.2-6.1c-0.5-0.5,0.3-1.6-0.6-2.5C206.4,704.6,202.7,703.5,198.3,704z"
		/>
	<path class="st1" d="M203,642.9c-3.3,0-6.3,0.7-9.1-1.7c0.6-1.3,1.6-2.9,1-4.7c-0.6-2,0.9-3.7,1.1-5.6c0.2-1.9-1-4,0.9-5.6
		c0.2-0.1,0-0.6,0-1c-0.1-2.4,0.2-4.7,0.9-7.1c0.6-2.1-0.3-4.5,1.1-6.5c-0.7-3.6,1.5-7,1-10.6c-0.3-1.9,1.4-3.2,1.1-5.1
		c-0.2-1.5,0.1-3,0.7-4.7c0.8-2.2,0.2-4.8,0.2-7.4c2.8,0,5.2,0,7.6,0c0.6,0.5,1.1,0.9,1.7,1.6c-2.8,2.9-0.2,6.7-2,10.1
		c-1.1,2,0.2,5.1-1.2,7.5c0.7,3.6-1.6,7-1,10.6c0.3,1.8-1.3,3.2-1.1,5.1c0.2,1.5,0.8,3.3-0.9,4.6c-0.2,0.1,0,0.6,0,1
		c0,2.4-0.1,4.7-0.9,7.1c-0.6,2.1-0.1,4.4-1,6.6C202.5,638.6,203,640.7,203,642.9z"/>
	<path class="st1" d="M297,649.4c-0.5,0.5-1,1-1.3,1.3c-2.7,1.1-4.7-1.7-7.6-0.4c0.1-2.2-0.7-4,0.7-5.8c0.6-0.7,0.2-2.2,0.2-3.4
		c0-8.2,0.2-16.3-0.1-24.5c-0.3-8.9,2-17.6,0.9-26.5c2.9,0,5.4,0,8.2,0c0,9.3,0,18.6,0,27.9c-1.7,5.1-0.8,10.4-1,15.6
		C296.9,638.8,297,644.1,297,649.4z"/>
	<path class="st1" d="M468.9,700.1c0,1.6,0,3.1,0,4.7c-5.2,0-10.3,0-15.7,0c0,4.1,0,8,0,12.1c4.8,0,9.6,0,14.4,0
		c0.8,1.7,0,3.3,0.5,5.1c-5.3,0-10.1,0-15,0c0,4.6,0,9.1,0,13.9c5.4,0,11,0,16.7,0c0,1.8,0,3.3,0,4.9c-7.5,0-15.1,0-22.8,0
		c0-13.5,0-27,0-40.6C454.3,700.1,461.4,700.1,468.9,700.1z"/>
	<path class="st1" d="M292.4,733.6c2.9-12,7.4-22.4,11-33.4c1.5,0,3.4,0,5.7,0c-0.8,4.7-2.8,9.1-4.3,13.5c-1.6,4.5-3.1,9-4.7,13.5
		c-1.6,4.5-3.3,9-4.9,13.5c-2,0-3.7,0-6,0c-3.2-6.2-4.1-13.5-6.8-20.2c-2.7-6.5-4.3-13.4-6.5-20.4c2.3,0,4,0,6.2,0
		C285.3,710.9,288.8,721.9,292.4,733.6z"/>
	<path class="st1" d="M343.9,735.7c0,2,0,3.4,0,5c-7.5,0-15,0-22.7,0c0-13.4,0-27,0-40.7c7.1,0,14.2,0,21.5,0c0,1.5,0,3,0,4.8
		c-5.1,0-10.3,0-15.2,0c-0.5,0.5-0.9,0.9-1.5,1.5c-0.1,3.2-0.4,6.7,1.4,10.5c4.5,0,9.4,0,14.4,0c0,1.8,0,3.2,0,5
		c-5.2,0-10.5,0-15.8,0c0,4.8,0,9.2,0,13.9C331.9,735.7,337.7,735.7,343.9,735.7z"/>
	<path class="st1" d="M157,724.9c0,5.5,0,10.6,0,15.8c-1.6,0-3,0-4.7,0c0-13,0-26.2,0-39.6c0.2-0.2,0.6-0.6,1.3-1.3
		c4.1,0,8.6-0.4,13,0.1c7.7,0.8,12.2,9.1,9.9,15.3c-1.1,2.8-2.1,5.5-4.5,7.1c-2.6,1.7-5.6,2.8-8.9,2.6
		C161.2,724.8,159.3,724.9,157,724.9z M171,709.2c-1.7-1.8-2.9-3-3.8-4c-3-1.6-6-1.4-8.8-1.2c-0.6,0.6-1,1-1.3,1.3
		c0,4.8,0,9.6,0,14.2c0.5,0.5,0.8,0.8,1.3,1.3c2,0,4.1,0,5.8,0c2.9-1.5,5.9-2.4,6.8-5.7C171,712.9,171,710.7,171,709.2z"/>
	<path class="st1" d="M431.6,705.8c-1.9,0.9-3.2-1.4-5.1-1c-1.6,0.4-3.3,0.1-5,0.1c-4-0.2-7.2,1.7-9.5,4.6c-2.8,3.5-3.9,7.8-4,12.3
		c2.1,1.8,0.4,4.5,1.8,6.8c1.3,2,3.1,3.3,4.5,5.1c0.3,0.4,0.7,0.7,1.1,1.1c7.7,1.8,12,1.5,16.1,0.1c0.5,1.4,1.8,2.6,1.5,4.7
		c-6.1,1.9-12.5,2.3-18.7,0.2c-5.7-2-9.4-6.5-11.1-12.3c-0.7-2.2-1.7-4.5-1.2-7c0.6-2.5,0.6-5.1,1.5-7.4c0.9-2.4,2.1-5,3.9-6.8
		c2.4-2.4,5.3-4.5,8.7-5.3c5.6-1.4,8.7-1.7,16.6,0.1C433.9,703,432,704.2,431.6,705.8z"/>
	<path class="st2" d="M383.5,731.9c-0.7-0.7-0.7-1.3,0-2C384.2,730.6,384.2,731.2,383.5,731.9z"/>
</g>
</svg>
